<?xml version="1.0" encoding="UTF-8" standalone="no"?>
<!-- Generator: Adobe Illustrator 16.0.0, SVG Export Plug-In . SVG Version: 6.00 Build 0)  -->

<svg
   xmlns:dc="http://purl.org/dc/elements/1.1/"
   xmlns:cc="http://creativecommons.org/ns#"
   xmlns:rdf="http://www.w3.org/1999/02/22-rdf-syntax-ns#"
   xmlns:svg="http://www.w3.org/2000/svg"
   xmlns="http://www.w3.org/2000/svg"
   xmlns:sodipodi="http://sodipodi.sourceforge.net/DTD/sodipodi-0.dtd"
   xmlns:inkscape="http://www.inkscape.org/namespaces/inkscape"
   version="1.1"
   id="レイヤー_1"
   x="0px"
   y="0px"
   width="128px"
   height="128px"
   viewBox="0 0 128 128"
   enable-background="new 0 0 128 128"
   xml:space="preserve"
   inkscape:version="0.91 r13725"
   sodipodi:docname="Emoji_u1f3ad.svg"><metadata
     id="metadata23"><rdf:RDF><cc:Work
         rdf:about=""><dc:format>image/svg+xml</dc:format><dc:type
           rdf:resource="http://purl.org/dc/dcmitype/StillImage" /></cc:Work></rdf:RDF></metadata><defs
     id="defs21" /><sodipodi:namedview
     pagecolor="#ffffff"
     bordercolor="#666666"
     borderopacity="1"
     objecttolerance="10"
     gridtolerance="10"
     guidetolerance="10"
     inkscape:pageopacity="0"
     inkscape:pageshadow="2"
     inkscape:window-width="1317"
     inkscape:window-height="744"
     id="namedview19"
     showgrid="false"
     inkscape:zoom="1.84375"
     inkscape:cx="88.436649"
     inkscape:cy="46.112344"
     inkscape:window-x="49"
     inkscape:window-y="24"
     inkscape:window-maximized="1"
     inkscape:current-layer="g3" /><g
     id="g3"
     transform="translate(-0.54237288,-1.6271186)"><g
       id="g4139"><path
         style="fill:#2e2e2e;fill-opacity:1"
         inkscape:connector-curvature="0"
         id="path5"
         d="m 114.27475,51.287288 2.76,9.39 c 0,0 7.71,-1.71 8.13,3.4 0.41,5.12 -7.2,8.54 -7.2,8.54 l 2.4,11.27 c 0,0 8.4,-6.8 8.53,-16.55 0,0 0.74,-11.99 -6.46,-14.8 -4.52,-1.75 -8.16,-1.25 -8.16,-1.25 z" /><path
         style="fill:#2e2e2e;fill-opacity:1"
         inkscape:connector-curvature="0"
         id="path7"
         d="m 62.491525,97.934746 c 0,0 -11.79,-5 -17.55,2.06 -0.79,0.970004 -1.54,1.970004 -2.29,2.970004 -0.6,0.79 -1.19,1.59 -1.84,2.34 -0.53,0.61 -1.11,1.19 -1.78,1.64 -0.66,0.44 -1.39,0.74 -2.16,0.91 -0.97,0.2 -1.98,0.2 -2.96,0.12 -1.41,-0.12 -2.81,-0.39 -4.19,-0.71 -0.45,-0.1 -0.9,-0.21 -1.34,-0.33 -0.11,-0.03 -0.23,-0.06 -0.35,-0.09 -0.07,-0.02 -0.22,-0.09 -0.29,-0.08 -0.42,0.09 0.25,0.82 0.37,0.96 0.28,0.35 0.58,0.68 0.9,0.99 0.86,0.84 1.83,1.55 2.89,2.1 1.36,0.7 2.86,1.12 4.39,1.23 0.14,0.01 0.38,0 0.46,0.13 0.17,0.25 -0.28,0.48 -0.47,0.59 -0.26,0.16 -0.53,0.3 -0.81,0.42 -0.91,0.39 -1.88,0.63 -2.85,0.81 -0.87,0.16 -1.76,0.26 -2.64,0.33 -0.45,0.03 -0.89,0.06 -1.33,0.08 -0.28,0.01 -0.62,-0.06 -0.89,0.04 -0.35,0.12 0.12,0.46 0.27,0.56 0.38,0.25 0.78,0.48 1.18,0.7 1.15,0.62 2.37,1.1 3.63,1.43 1.59,0.41 3.26,0.56 4.9,0.38 1.42,-0.15 2.8,-0.55 4.1,-1.14 7.24,-3.31 6.62,-10.24 13.25,-10.76 4.87,-0.38 11.78,2.18 11.78,2.18 l -4.38,-9.860004 z" /><path
         style="fill:#393939;fill-opacity:1"
         inkscape:connector-curvature="0"
         id="path9"
         d="m 16.98,36.45 c 0,0 -12.95,2.13 -16.25,13.64 -4.21,14.71 16.7,19.62 16.7,19.62 l 1.31,-9.99 c 0,0 -13.93,-1.39 -13.12,-6.73 1,-6.58 12.57,-5.97 12.57,-5.97 L 16.98,36.45 Z" /><path
         style="fill:#444444;fill-opacity:1"
         inkscape:connector-curvature="0"
         id="path11"
         d="m 18.03,71.25 c 0,0 -1.99,0.6 -4.94,2.65 -2.02,1.41 -4.7,3.19 -7.28,6.26 -1.29,1.53 -2.34,3.27 -2.99,5.17 -0.45,1.29 -0.71,2.64 -0.73,4 0,0.29 0,0.58 0.01,0.86 0.01,0.13 0.01,0.86 0.33,0.67 0.11,-0.06 0.21,-0.39 0.27,-0.5 0.25,-0.46 0.53,-0.91 0.84,-1.33 0.87,-1.23 1.96,-2.31 3.2,-3.16 0.39,-0.27 0.8,-0.52 1.22,-0.74 0.2,-0.1 0.74,-0.55 0.89,-0.16 0.07,0.19 -0.1,0.54 -0.16,0.73 -0.08,0.33 -0.17,0.65 -0.25,0.98 -0.37,1.57 -0.64,3.17 -0.75,4.78 -0.06,0.87 -0.07,1.76 -0.02,2.63 0.02,0.44 0.07,0.88 0.13,1.32 0.03,0.21 0.07,0.42 0.11,0.63 0.04,0.22 0.25,0.46 0.4,0.18 0.06,-0.12 0.12,-0.25 0.18,-0.38 0.16,-0.33 0.32,-0.66 0.49,-0.99 0.48,-0.94 1,-1.85 1.55,-2.75 0.72,-1.15 1.49,-2.27 2.32,-3.34 0.95,-1.22 1.99,-2.38 3.1,-3.44 1.2,-1.14 2.5,-2.17 3.9,-3.05 0.83,-0.53 1.71,-1 2.62,-1.39 l -4.44,-9.63 z" /><path
         d="m 119.71,80.08 c -1.23,-5.92 -2.92,-11.74 -4.84,-17.47 -1.64,-4.9 -3.26,-9.86 -6.18,-14.17 -1.27,-1.86 -3.25,-3.16 -5.55,-4.07 -4.63,-1.82 -10.55,-2.08 -14.57,-2.12 -5.99,-0.05 -12.23,1.3 -17.83,3.94 -1.96,6.01 -7.55,21.23 -15.79,28.03 0.51,2.85 1.14,5.68 1.92,8.47 1.37,4.94 3.2,9.8 4.88,14.65 1.62,4.66 3.55,9.39 6.99,13.04 0.9,0.96 1.96,1.75 2.97,2.59 2.39,1.99 5.27,3.23 8.21,4.16 2.73,0.87 5.52,1.59 8.31,2.22 5.01,1.13 12.21,2.97 17.09,0.68 2.67,-1.25 4.88,-3.07 6.69,-5.41 1.87,-2.42 3.38,-5.11 4.71,-7.87 2.01,-4.21 4.11,-8.94 4.43,-13.65 0.3,-4.38 -0.55,-8.75 -1.44,-13.02 z M 93.6,63.73 c 4.5,2.94 10.29,3.72 15.49,3.43 1.54,-0.08 2.37,0.08 1.97,1.83 -0.78,3.47 -4.09,5.53 -7.3,6.25 -0.81,0.18 -1.6,0.22 -2.37,0.16 -1.54,-0.13 -3.03,-0.74 -4.3,-1.63 -2.77,-1.93 -4.87,-5.19 -5.49,-8.53 -0.33,-1.76 0.32,-2.6 2,-1.51 z M 65.3,81.69 c -1.29,-1.34 -0.64,-1.93 0.79,-2.68 4.82,-2.53 9.58,-6.32 12.06,-11.34 0.92,-1.86 1.95,-1.46 2.59,0.26 1.22,3.3 1.06,7.32 -0.39,10.51 -0.67,1.48 -1.67,2.81 -2.99,3.75 -0.66,0.47 -1.39,0.85 -2.21,1.12 -3.25,1.1 -7.3,1.04 -9.85,-1.62 z m 47.58,16.65 c -0.44,-0.03 -1,-0.36 -1.53,-0.72 -0.49,-0.32 -0.97,-0.68 -1.33,-0.86 -1.25,-0.63 -2.55,-1.17 -3.88,-1.61 -3.99,-1.32 -8.36,-1.28 -12.35,0.03 -2.82,0.93 -5.51,2.58 -7.65,4.63 -2.38,2.28 -4.15,5.12 -6.46,7.46 -0.26,0.26 -0.58,0.62 -0.91,0.77 -0.6,0.29 -1.25,-0.08 -1.4,-0.69 -1.03,-4.19 1.81,-10.14 3.9,-13.65 2.37,-3.97 5.86,-7.2 10.36,-8.54 2.22,-0.66 4.59,-0.72 6.86,-0.36 6.69,1.04 13.59,6.35 14.94,12.37 0.08,0.39 -0.03,1.21 -0.55,1.17 z"
         id="path15"
         inkscape:connector-curvature="0"
         style="fill:#000000;fill-opacity:0.88826823" /><path
         d="M 78.54,31.48 C 78.25,30.33 77.42,29.3 76.84,28.29 70.12,16.59 55.51,10.95 42.54,11.81 c -4.01,0.26 -9.91,0.85 -14.42,2.94 -2.25,1.04 -4.15,2.45 -5.31,4.38 -2.68,4.47 -4.01,9.52 -5.37,14.5 -1.6,5.83 -2.96,11.74 -3.85,17.72 -0.77,5.2 -1.49,10.94 -0.1,16.1 1.1,4.06 3.5,9.81 6.12,13.09 2.86,3.58 6.96,7.76 11.35,9.41 0.84,0.32 1.73,0.53 2.61,0.7 1.7,0.34 3.5,0.53 5.23,0.25 1.04,-0.17 2.09,-0.28 3.1,-0.55 2,-0.53 3.88,-1.18 5.79,-1.95 8.04,-3.21 14.53,-7.86 18.79,-15.5 1.85,-3.31 3.33,-6.8 4.66,-10.35 0.08,-0.21 0.15,-0.41 0.23,-0.62 2.13,-5.81 3.48,-11.86 4.95,-17.86 0.72,-2.94 1.54,-5.86 1.93,-8.87 0.17,-1.24 0.6,-2.47 0.29,-3.72 z m -58.03,7.43 c 1.81,-3.31 6.11,-5.86 9.93,-5.44 0.64,0.07 1.27,0.23 1.87,0.47 3.78,1.56 6.08,5.28 5.19,9.12 -0.19,0.81 -0.73,0.93 -1.33,0.42 -2.07,-1.77 -3.78,-3.15 -6.61,-3.88 -2.3,-0.59 -4.85,-0.29 -7.11,0.31 -0.49,0.13 -1.33,0.59 -1.83,0.37 -0.57,-0.24 -0.34,-0.96 -0.11,-1.37 z m 41.57,25.94 c -1.12,1.73 -2.59,3.22 -4.09,4.6 -0.36,0.33 -0.72,0.65 -1.09,0.96 -5.95,5 -14.07,7.49 -21.81,5.62 -2.11,-0.51 -4.39,-1.58 -6.1,-2.91 -1.34,-1.04 -2.61,-2.31 -3.71,-3.61 -2.01,-2.36 -3.49,-5.19 -4.46,-8.12 -0.48,-1.45 -0.82,-2.94 -0.99,-4.45 -0.05,-0.48 -0.66,-5.75 0.91,-5.1 0.37,0.15 0.69,0.46 0.96,0.81 0.3,0.37 0.55,0.78 0.8,1.1 0.7,0.89 1.42,1.78 2.16,2.64 2.53,2.91 5.61,5.23 9.13,6.81 2.39,1.07 4.99,1.68 7.59,1.93 1.46,0.14 2.93,0.17 4.39,0.09 5.41,-0.28 10.9,-1.86 15.84,-4.05 0.41,-0.18 0.91,-0.5 1.37,-0.49 1.68,0.02 -0.59,3.69 -0.9,4.17 z m 5.74,-14.69 c -0.04,0.46 -0.22,1.19 -0.78,1.08 -0.48,-0.1 -0.88,-0.96 -1.18,-1.33 -1.4,-1.77 -4.13,-3.79 -6.78,-4.44 -3.25,-0.8 -5.6,0.57 -8.8,0.92 -0.93,0.1 -1.38,-0.3 -1.03,-1.08 1.69,-3.7 6.19,-6.57 10.93,-5.8 0.75,0.12 1.47,0.34 2.15,0.63 4.04,1.74 5.78,6.27 5.49,10.02 z"
         id="path17"
         inkscape:connector-curvature="0"
         style="fill:#000000;fill-opacity:1" /></g></g></svg>